<svg width="20" height="21" viewBox="0 0 20 21" fill="none" xmlns="http://www.w3.org/2000/svg">
    <path
        d="M0 1.29167C0 1.11486 0.0702401 0.945286 0.195268 0.820262C0.320296 0.695238 0.489871 0.625 0.666687 0.625H2.66675C2.81546 0.625041 2.95989 0.674801 3.07707 0.766366C3.19425 0.857932 3.27745 0.986045 3.31344 1.13033L3.85345 3.29167H19.3339C19.4318 3.29176 19.5285 3.3134 19.6171 3.35507C19.7057 3.39673 19.784 3.45739 19.8465 3.53274C19.909 3.60808 19.9541 3.69627 19.9787 3.79102C20.0032 3.88578 20.0066 3.98478 19.9886 4.081L17.9886 14.7477C17.96 14.9004 17.8789 15.0384 17.7593 15.1377C17.6398 15.2371 17.4893 15.2915 17.3339 15.2917H5.3335C5.17807 15.2915 5.02758 15.2371 4.90803 15.1377C4.78849 15.0384 4.70741 14.9004 4.67881 14.7477L2.68008 4.101L2.14673 1.95833H0.666687C0.489871 1.95833 0.320296 1.8881 0.195268 1.76307C0.0702401 1.63805 0 1.46848 0 1.29167ZM4.13613 4.625L5.88685 13.9583H16.7805L18.5312 4.625H4.13613ZM6.66687 15.2917C5.95961 15.2917 5.28131 15.5726 4.7812 16.0727C4.28108 16.5728 4.00012 17.2511 4.00012 17.9583C4.00012 18.6656 4.28108 19.3439 4.7812 19.844C5.28131 20.344 5.95961 20.625 6.66687 20.625C7.37414 20.625 8.05244 20.344 8.55255 19.844C9.05266 19.3439 9.33362 18.6656 9.33362 17.9583C9.33362 17.2511 9.05266 16.5728 8.55255 16.0727C8.05244 15.5726 7.37414 15.2917 6.66687 15.2917ZM16.0005 15.2917C15.2932 15.2917 14.6149 15.5726 14.1148 16.0727C13.6147 16.5728 13.3337 17.2511 13.3337 17.9583C13.3337 18.6656 13.6147 19.3439 14.1148 19.844C14.6149 20.344 15.2932 20.625 16.0005 20.625C16.7078 20.625 17.3861 20.344 17.8862 19.844C18.3863 19.3439 18.6672 18.6656 18.6672 17.9583C18.6672 17.2511 18.3863 16.5728 17.8862 16.0727C17.3861 15.5726 16.7078 15.2917 16.0005 15.2917ZM6.66687 16.625C7.02051 16.625 7.35965 16.7655 7.60971 17.0155C7.85977 17.2656 8.00025 17.6047 8.00025 17.9583C8.00025 18.312 7.85977 18.6511 7.60971 18.9011C7.35965 19.1512 7.02051 19.2917 6.66687 19.2917C6.31324 19.2917 5.97409 19.1512 5.72403 18.9011C5.47398 18.6511 5.3335 18.312 5.3335 17.9583C5.3335 17.6047 5.47398 17.2656 5.72403 17.0155C5.97409 16.7655 6.31324 16.625 6.66687 16.625ZM16.0005 16.625C16.3541 16.625 16.6933 16.7655 16.9433 17.0155C17.1934 17.2656 17.3339 17.6047 17.3339 17.9583C17.3339 18.312 17.1934 18.6511 16.9433 18.9011C16.6933 19.1512 16.3541 19.2917 16.0005 19.2917C15.6469 19.2917 15.3077 19.1512 15.0577 18.9011C14.8076 18.6511 14.6671 18.312 14.6671 17.9583C14.6671 17.6047 14.8076 17.2656 15.0577 17.0155C15.3077 16.7655 15.6469 16.625 16.0005 16.625Z"
        fill="#000" />
</svg>
    